HIERARCHY
ROOT Hips
{
  OFFSET -331.093 83.8371 -317.828
  CHANNELS 6 Xposition Yposition Zposition Zrotation Xrotation Yrotation
  JOINT LeftUpLeg
  {
    OFFSET 8.64259 1.95398 -2.38835
    CHANNELS 3 Zrotation Xrotation Yrotation
    JOINT LeftLeg
    {
      OFFSET 43.7702 0 0
      CHANNELS 3 Zrotation Xrotation Yrotation
      JOINT LeftFoot
      {
        OFFSET 40.6238 0 0
        CHANNELS 3 Zrotation Xrotation Yrotation
        JOINT LeftToeBase
        {
          OFFSET 12.7242 0 0
          CHANNELS 3 Zrotation Xrotation Yrotation
          End Site
          {
            OFFSET 0 0 0
          }
        }
      }
    }
  }
  JOINT RightUpLeg
  {
    OFFSET -8.2249 1.95398 -2.59336
    CHANNELS 3 Zrotation Xrotation Yrotation
    JOINT RightLeg
    {
      OFFSET 43.5653 0 0
      CHANNELS 3 Zrotation Xrotation Yrotation
      JOINT RightFoot
      {
        OFFSET 40.6238 0 0
        CHANNELS 3 Zrotation Xrotation Yrotation
        JOINT RightToeBase
        {
          OFFSET 12.7242 0 0
          CHANNELS 3 Zrotation Xrotation Yrotation
          End Site
          {
            OFFSET 0 0 0
          }
        }
      }
    }
  }
  JOINT Spine
  {
    OFFSET 0.165834 0.87714 6.61349
    CHANNELS 3 Zrotation Xrotation Yrotation
    JOINT Spine1
    {
      OFFSET 7.38963 1.71661e-005 0
      CHANNELS 3 Zrotation Xrotation Yrotation
      JOINT Spine2
      {
        OFFSET 11.9445 1.14441e-005 0
        CHANNELS 3 Zrotation Xrotation Yrotation
        JOINT Spine3
        {
          OFFSET 14.7254 4.19617e-005 0
          CHANNELS 3 Zrotation Xrotation Yrotation
          JOINT Spine4
          {
            OFFSET 10.9679 0 0
            CHANNELS 3 Zrotation Xrotation Yrotation
            JOINT RightShoulder
            {
              OFFSET 2.46616 -1.6653 3.69651
              CHANNELS 3 Zrotation Xrotation Yrotation
              JOINT RightArm
              {
                OFFSET 13.0012 0 0
                CHANNELS 3 Zrotation Xrotation Yrotation
                JOINT RightForeArm
                {
                  OFFSET 28.7848 1.62311e-005 0
                  CHANNELS 3 Zrotation Xrotation Yrotation
                  JOINT RightHand
                  {
                    OFFSET 26.5688 1.62095e-005 0
                    CHANNELS 3 Zrotation Xrotation Yrotation
                    End Site
                    {
                      OFFSET 0 0 0
                    }
                  }
                }
              }
            }
            JOINT LeftShoulder
            {
              OFFSET 2.38034 -1.29275 -3.7523
              CHANNELS 3 Zrotation Xrotation Yrotation
              JOINT LeftArm
              {
                OFFSET 16.3182 6.07031e-005 0
                CHANNELS 3 Zrotation Xrotation Yrotation
                JOINT LeftForeArm
                {
                  OFFSET 27.0901 0 0
                  CHANNELS 3 Zrotation Xrotation Yrotation
                  JOINT LeftHand
                  {
                    OFFSET 24.5451 1.51738e-005 0
                    CHANNELS 3 Zrotation Xrotation Yrotation
                    End Site
                    {
                      OFFSET 0 0 0
                    }
                  }
                }
              }
            }
            JOINT Neck
            {
              OFFSET 5.0226 -0.0266342 0
              CHANNELS 3 Zrotation Xrotation Yrotation
              JOINT Head
              {
                OFFSET 6.69364 2.86102e-005 0
                CHANNELS 3 Zrotation Xrotation Yrotation
                End Site
                {
                  OFFSET 0 0 0
                }
              }
            }
          }
        }
      }
    }
  }
}
MOTION
Frames:	18
Frame Time:	0.0416667
-258.485 97.7436 -242.484 88.4195 -65.2857 88.6823 -174.065 5.05946 91.9977 -12.2599 -5.11027 -0.571563 63.5489 2.15613 4.87202 31.5055 3.65196 6.12416 172.128 1.03178 90.3135 -10.0127 -8.21766 -2.00325 67.5171 -4.73748 -2.45111 29.5323 -0.509058 -3.97305 -0.431318 6.67313 -89.9383 13.5288 -0.825595 0.230203 1.85807 -0.814649 0.26631 -20.6792 -0.856596 -0.0285732 -0.666543 -0.856594 -0.0285937 95.6174 -36.9147 -93.8137 30.8376 -3.10348 20.1851 3.17831 -0.561541 -96.2496 -77.6016 -4.44871 0.0394481 -94.002 -49.3854 73.1026 -25.5438 16.5532 5.83775 14.3688 14.8686 -48.9043 4.15187 0.190914 0.564757 -2.90259 5.23114 3.69369 1.36053 4.78449 0.971466 
-258.396 97.712 -242.246 87.6158 -63.9264 88.0288 -174.111 5.45912 92.1742 -12.2077 -3.74542 -0.600549 63.3951 2.04388 4.68654 32.1448 3.66153 4.26467 171.932 0.921885 90.414 -9.54472 -6.34573 -1.72045 68.2477 -5.23345 -2.67441 27.8502 -0.166616 -1.58584 -0.62658 6.6578 -89.9358 13.5612 -1.21155 0.286515 1.89077 -1.19777 0.339549 -20.6489 -1.24165 -0.0909148 -0.636285 -1.24165 -0.0909184 95.61 -36.8184 -93.8452 31.4533 -3.16277 19.1338 4.17506 -0.428644 -95.8714 -74.1598 -1.70684 -3.30363 -93.5876 -48.8447 73.5654 -26.4315 16.1867 6.35891 13.7441 12.0554 -52 7.12055 0.610087 4.17448 -2.00209 7.0245 3.74639 0.957375 6.51237 0.810978 
-258.46 97.6547 -241.529 90.1936 -66.2658 89.1154 -174.141 2.62265 91.1328 -10.4664 -6.68172 -0.614941 63.2519 1.99533 4.31437 31.5601 2.87493 3.10013 172.051 1.07496 89.378 -12.4717 -9.51214 -2.68465 68.6989 -5.07585 -2.59501 30.4992 -0.45125 -3.18135 -0.471844 6.77133 -89.7576 13.3333 -0.819098 0.588224 1.66249 -0.792401 0.623695 -20.8744 -0.958009 0.314839 -0.861726 -0.958009 0.314839 95.1299 -36.883 -94.7076 31.5032 -1.90737 18.8524 10.5924 3.8003 -96.4677 -65.431 1.07077 -7.29117 -93.0497 -48.3936 74.2468 -27.4208 17.4989 7.84708 15.2936 7.71657 -59.5912 5.17164 0.603689 5.98585 -2.54845 8.6059 3.72081 2.13046 8.12136 1.29355 
-258.392 97.5479 -241.095 89.0504 -67.0953 87.9948 -174.462 2.85052 90.881 -10.8046 -7.9858 -0.266311 63.4866 1.86456 4.44225 31.4508 2.49668 1.99211 172.618 1.76674 89.5123 -13.3467 -10.1055 -3.01723 68.934 -5.28595 -2.68031 31.4509 -0.56709 -3.64555 -0.431912 6.72662 -89.7401 13.4225 -0.73115 0.613729 1.75165 -0.703437 0.645301 -20.7847 -0.881789 0.365601 -0.772012 -0.881805 0.3656 94.9458 -36.6458 -95.0905 31.051 2.57572 18.8673 6.87252 -2.09108 -94.8583 -61.5513 2.54435 -9.73298 -92.3741 -47.7761 75.0968 -28.7273 21.8965 9.35371 16.9401 1.71344 -69.7309 6.20758 0.426302 2.62546 -2.5662 9.56805 3.98815 2.29306 9.04505 1.29984 
-258.336 97.4824 -240.662 88.4468 -68.4467 87.7048 -174.414 2.61872 91.0764 -10.7515 -9.28885 -0.108341 63.7685 1.90282 4.54852 32.0631 3.11948 2.53635 173.24 2.05207 89.8495 -13.8208 -11.3462 -3.3406 68.8356 -5.31254 -2.68121 32.1796 -0.40921 -2.35872 -0.320894 6.75717 -89.7548 13.3607 -0.518162 0.556606 1.68971 -0.493158 0.578869 -20.8458 -0.661487 0.375149 -0.833129 -0.661493 0.375143 95.1129 -35.8196 -94.9489 33.8202 4.93403 17.9924 14.7676 1.33453 -90.1989 -51.1229 4.27636 -14.6425 -92.4806 -47.9199 74.9736 -28.6819 26.855 10.6866 15.5833 -7.10493 -82.7209 7.96237 0.449491 1.5959 -3.16955 10.272 4.90312 3.60257 9.62349 0.253045 
-258.49 97.3513 -240.561 87.9233 -69.6444 87.07 -174.338 3.00703 90.9593 -11.6691 -10.3779 -0.183382 64.0337 2.18823 4.66883 32.4852 3.68208 3.3634 173.917 2.38509 89.9341 -14.436 -12.1007 -3.80815 68.8784 -5.34108 -2.68007 33.2399 -0.376538 -1.89301 -0.310997 6.84489 -89.7247 13.1852 -0.484481 0.611482 1.51416 -0.457102 0.632204 -21.0211 -0.645859 0.437601 -1.00841 -0.645868 0.437602 94.944 -35.3651 -95.3535 36.743 8.96101 16.2514 23.1397 8.77551 -85.8582 -20.5856 0.965107 -10.5832 -92.546 -48.2095 74.9524 -27.8211 32.7563 10.4374 9.04865 -13.8114 -96.904 5.02417 0.407757 3.24861 -4.15386 10.7492 5.60642 6.20461 10.0365 -0.151284 
-258.703 97.1732 -240.807 86.2139 -71.5847 84.863 -173.811 4.36093 90.8644 -13.7523 -11.115 -1.03818 63.7541 3.31903 5.82397 35.1739 5.71366 2.96745 174.64 4.97695 89.4642 -17.795 -13.6376 -4.51507 69.5107 -5.43494 -2.73488 33.8412 -0.0842459 0.0237106 -0.258873 6.99279 -89.6672 12.8889 -0.35448 0.708085 1.21778 -0.322971 0.722989 -21.3166 -0.550897 0.568822 -1.30393 -0.550899 0.568819 94.3619 -36.1521 -96.2647 36.8625 13.0096 13.9548 20.0042 13.2625 -78.9957 2.08155 0.240529 -8.1546 -93.0029 -48.4714 74.3372 -24.136 35.9722 5.31043 7.81354 -17.3571 -106.644 2.43965 0.222134 3.06668 -4.37518 11.3869 6.7959 8.2172 10.4386 -1.33656 
-259.108 96.7925 -241.743 80.189 -73.5891 79.5556 -171.559 9.86438 91.9285 -20.3573 -9.79328 -3.32431 63.1624 3.78143 6.61896 38.9713 8.64095 2.5951 176.029 8.54818 90.3142 -20.3762 -14.6206 -4.90429 69.8657 -5.45884 -2.7633 34.5365 -0.0883919 0.0731733 -0.195462 7.154 -89.721 12.5664 -0.255281 0.586396 0.895303 -0.229236 0.597051 -21.6393 -0.41973 0.482564 -1.62664 -0.419724 0.482561 93.2252 -37.3447 -98.0563 36.4887 19.0432 7.60781 6.86502 7.81378 -67.9628 14.6422 -0.155172 -8.20978 -93.6474 -47.8642 73.1992 -19.2487 38.8966 -2.45871 7.25012 -19.5893 -112.351 1.56508 0.143728 2.33344 -3.92123 11.8602 6.90407 9.71875 10.8681 -0.998702 
-259.588 96.2809 -243.176 72.2101 -75.2363 72.3123 -168.172 17.6001 93.8624 -29.7317 -6.62985 -5.75181 61.3635 2.05144 4.94281 42.0144 12.6447 6.14483 177.292 12.437 91.1125 -22.7193 -15.1805 -5.30282 70.4219 -5.43562 -2.79003 33.9204 0.0242469 0.697148 -0.190267 7.42277 -89.8063 12.0287 -0.286805 0.41768 0.357724 -0.268131 0.429894 -22.1773 -0.399075 0.312179 -2.1647 -0.399071 0.312175 92.1934 -37.7359 -99.8106 35.6571 18.6762 3.89257 2.3754 7.62492 -63.3563 15.8132 -0.119306 -7.37813 -93.791 -46.3013 72.525 -13.6988 40.9216 -11.9537 7.30201 -20.602 -113.813 0.349407 0.090516 3.23933 -3.78646 12.4116 7.50859 12.9338 11.3891 -0.155007 
-259.985 95.8105 -245.036 63.2129 -76.4523 63.6846 -165.361 26.2425 94.81 -39.1094 -3.12148 -6.8911 58.1797 -1.25637 2.11931 38.9886 13.657 14.9412 178.504 16.8848 91.562 -25.6877 -15.3595 -5.82282 70.7237 -5.31784 -2.78824 34.5019 -0.234029 -0.746178 -0.183279 7.81607 -89.8968 11.242 -0.316678 0.236845 -0.428918 -0.30596 0.250546 -22.9643 -0.373229 0.130711 -2.95167 -0.373225 0.130716 91.5785 -37.4892 -100.975 34.5085 16.2946 0.841484 2.25037 6.33738 -61.3509 7.95165 0.0623051 -6.14324 -94.7634 -45.3344 70.7342 -7.72227 41.536 -20.6801 10.379 -21.6569 -111.156 0.75544 0.149902 4.28774 -3.88883 12.8132 8.15251 16.9086 11.9243 1.35605 
-260.079 95.1948 -247.151 46.469 -76.9765 47.1724 -164.197 35.0569 94.6575 -44.1409 3.02424 -7.54687 57.8897 -1.93127 1.01108 36.0873 14.8505 24.3436 -179.761 22.9129 91.7015 -28.9985 -14.7363 -6.37017 71.3887 -5.56877 -2.93156 37.7828 -1.0043 -4.23754 -0.148245 8.14253 -89.9146 10.5891 -0.255934 0.193942 -1.08189 -0.24716 0.205004 -23.6172 -0.302389 0.108052 -3.60456 -0.302396 0.108045 91.0732 -37.2656 -101.941 33.5609 13.5979 -3.85453 0.672567 7.2751 -58.509 2.17755 0.0948784 -5.13788 -95.6447 -44.4114 69.0669 -1.84009 41.6239 -28.1958 13.5338 -21.8686 -106.885 3.6636 0.51823 7.31699 -3.43552 13.2276 7.90165 20.2696 12.7644 3.7042 
-259.848 94.6483 -248.944 28.2015 -77.2718 29.8101 -165.174 40.9847 96.3584 -41.8702 9.5623 -8.34997 60.5482 -0.424418 0.901648 39.537 17.0146 20.6758 -177.675 27.2923 92.2879 -30.0937 -10.739 -6.43452 71.9942 -6.33804 -3.19659 36.9163 -1.23316 -5.71611 -0.123893 8.5697 -89.9484 9.73469 -0.223554 0.1192 -1.93624 -0.218079 0.128927 -24.4716 -0.249042 0.0464981 -4.45891 -0.249036 0.0465158 90.6102 -36.8079 -102.907 32.7924 10.6575 -9.23303 0.725822 7.52289 -55.4275 -2.74283 0.0712665 -4.97954 -95.8593 -43.7134 68.4933 1.9163 40.0425 -32.8552 23.372 -21.054 -99.1132 10.4672 1.67414 11.0214 -2.2265 14.172 8.66968 23.4837 13.8447 5.07386 
-259.325 93.8213 -250.647 18.0742 -75.9971 19.845 -168.544 45.3326 98.0766 -36.7369 8.70486 -7.58098 62.5436 1.5953 2.59451 41.8188 18.4023 18.5167 -177.039 32.1473 91.8266 -32.8072 -5.2727 -6.08902 72.9456 -6.95131 -3.44339 34.0139 -0.965668 -5.3005 -0.21975 9.06646 -89.9291 8.74128 -0.406885 0.167128 -2.92962 -0.399138 0.184866 -25.4653 -0.438302 0.0371204 -5.45263 -0.438301 0.0371068 90.4993 -36.4178 -103.226 32.0727 8.7415 -14.7223 1.13084 8.13348 -53.6443 -8.32584 -0.0189022 -4.18419 -96.9278 -43.3097 66.6817 4.64232 35.3391 -36.6539 27.5905 -16.1195 -91.4378 14.0425 2.34678 12.4093 -0.910014 14.5924 8.65344 26.8811 14.723 7.03537 
-258.871 92.397 -252.302 6.76333 -72.8273 7.94848 -171.643 50.5957 100.202 -32.1257 1.31082 -6.77419 64.9957 3.43929 3.39049 40.0835 17.409 20.2668 -175.435 39.9769 90.1015 -37.2603 -5.18768 -5.94889 71.0526 -6.22898 -3.22201 33.1229 -1.15117 -6.85221 -0.243103 9.34467 -89.7291 8.185 -0.366178 0.556408 -3.48603 -0.341334 0.571978 -26.021 -0.516469 0.420637 -6.00833 -0.516472 0.420631 89.8548 -36.7405 -104.283 30.6971 7.75257 -19.3507 1.27507 8.24926 -52.869 -14.1965 -0.137296 -3.84197 -97.844 -42.5846 64.9749 5.84695 28.7342 -39.1727 26.6842 -9.57917 -84.5074 17.9988 2.98225 12.6678 0.180756 15.077 8.35786 30.0286 15.5569 8.04033 
-258.042 90.4278 -253.68 1.08359 -69.4303 2.35229 -174.228 56.0899 102.87 -29.1924 -5.04282 -6.38986 65.1327 4.76466 6.29948 39.6622 15.0081 16.254 -173.711 48.0441 88.5765 -43.2139 -4.41148 -5.64067 70.6985 -6.07015 -3.27089 34.6844 -0.789437 -3.99947 -0.2169 9.61614 -89.6904 7.64198 -0.298421 0.626088 -4.0291 -0.270579 0.638612 -26.5636 -0.472801 0.50745 -6.55102 -0.472791 0.50746 89.8359 -36.6928 -104.332 28.6196 6.89869 -23.4826 3.10821 9.86903 -52.3138 -18.9061 -0.449087 -2.52183 -99.243 -42.4455 62.7409 7.84915 20.4567 -43.927 12.9173 -5.1951 -75.7864 19.1953 2.44127 8.87526 1.99603 14.9885 8.09566 31.9531 15.7712 9.13753 
-256.847 88.036 -254.592 -2.28845 -67.6337 -0.0259178 -175.726 60.426 105.876 -28.9204 -5.0551 -6.36748 62.2266 2.81885 6.3464 42.4984 15.548 11.5217 -173.605 54.223 88.2268 -49.6356 -4.17833 -4.78167 72.0913 -6.56173 -3.59848 37.3048 -0.233035 -0.454224 -0.226134 10.0369 -89.6805 6.80063 -0.315097 0.642311 -4.87043 -0.286522 0.655546 -27.405 -0.493578 0.517916 -7.3924 -0.493571 0.517912 89.0799 -36.773 -105.657 26.6228 6.47339 -27.7904 4.98491 12.4636 -49.932 -21.0291 -0.791558 -1.03424 -99.5081 -41.6633 61.9944 7.73314 12.1642 -48.0162 4.66121 -3.1403 -64.8956 14.0925 1.15381 4.13339 4.05544 15.3813 7.66668 33.9872 16.2002 9.17677 
-255.706 85.0051 -255.024 -9.91655 -65.5136 -5.48131 -173.544 67.8471 109.058 -36.7194 -4.34937 -7.68373 59.986 0.312187 4.14637 33.1573 6.98996 12.2884 -173.408 60.6966 89.5171 -56.5962 -5.06283 -3.88201 74.1835 -7.38167 -4.01653 39.5118 0.296792 2.26808 0.0144757 10.3083 -89.7701 6.25672 0.126118 0.448118 -5.4143 0.145718 0.442134 -27.9488 -0.0143857 0.465307 -7.93618 -0.0143907 0.465294 87.6264 -36.9562 -108.172 22.5531 6.43706 -30.2702 4.59008 12.9268 -46.8339 -19.5155 -0.786762 -0.682536 -101.714 -42.9375 59.1415 10.2185 4.9024 -52.0832 -0.432671 -1.93658 -52.3305 9.73659 0.20328 -1.60036 4.83355 15.7424 9.34275 36.0244 15.7658 7.59835 
-254.678 82.3172 -255.4 -16.8824 -64.1914 -10.0631 -170.938 75.2448 112.351 -45.0029 0.698149 -9.3197 58.274 -0.413401 5.99045 35.4797 8.64028 10.801 -175.331 65.3857 92.6444 -62.1266 -6.14081 -2.73644 75.1929 -7.95683 -4.30991 41.0044 -0.028992 0.784985 0.293035 10.6583 -89.6965 5.55505 0.712002 0.578372 -6.11582 0.736778 0.546481 -28.6509 0.505269 0.765609 -8.63824 0.505268 0.765622 85.6971 -38.4717 -110.955 17.8577 6.8051 -33.3318 9.77395 18.4185 -44.605 -17.0169 -0.426333 -2.32864 -102.126 -41.376 57.7965 10.778 -0.900983 -55.9094 -3.48321 -1.78672 -41.8718 7.49114 0.00706991 -3.25244 6.865 16.2773 6.7939 36.2842 16.7643 8.07607 
